<svg width="2000" height="1000" xmlns="http://www.w3.org/2000/svg"><path fill="none" d="M0 0h2000v1000H0z"/><path d="M0 125h0c40.453-2.716 80.906-5.431 119-8 38.094-2.569 73.83-4.99 113-5 39.17-.01 81.776 2.393 123 7 41.224 4.607 81.067 11.419 119 10 37.933-1.419 73.957-11.068 112-10 38.043 1.068 78.106 12.852 118 15 39.894 2.148 79.621-5.341 118-9 38.379-3.659 75.41-3.487 115-2s81.737 4.291 123 7c41.263 2.709 81.643 5.323 121 0s77.691-18.582 116-17c38.309 1.582 76.593 18.007 114 20 37.407 1.993 73.938-10.444 114-11 40.062-.556 83.656 10.768 123 10 39.344-.768 74.439-13.63 113-18 38.561-4.37 80.589-.249 121 3s79.206 5.624 158 8" fill="none" stroke="#4dbdff" stroke-width="17" stroke-linecap="round"/><path d="M0 250h0c40.225-.721 80.45-1.443 120-4s78.424-6.951 117-6c38.576.951 76.852 7.247 115 12 38.148 4.753 76.167 7.963 116 8 39.833.037 81.479-3.098 121-2 39.521 1.098 76.919 6.428 114 1s73.847-21.614 115-21c41.153.614 86.693 18.028 126 18 39.307-.028 72.38-17.497 109-17 36.62.497 76.789 18.959 119 22 42.211 3.041 86.465-9.338 126-16 39.535-6.662 74.35-7.607 113-7 38.65.607 81.133 2.765 122 1 40.867-1.765 80.12-7.452 119-2 38.88 5.452 77.391 22.045 114 23 36.609.955 71.317-13.727 110-18 38.683-4.273 81.342 1.864 164 8" fill="none" stroke="#84d2ff" stroke-width="17" stroke-linecap="round"/><path d="M0 375h0c37.207-6.384 74.414-12.767 114-11 39.586 1.767 81.551 11.686 122 11 40.449-.686 79.38-11.977 119-11 39.62.977 79.926 14.222 118 16 38.074 1.778 73.917-7.91 112-12s78.408-2.583 118 0 78.452 6.241 117 8c38.548 1.759 76.783 1.618 116-1 39.217-2.618 79.416-7.712 119-7 39.584.712 78.554 7.23 119 10 40.446 2.77 82.368 1.792 123-2 40.632-3.792 79.973-10.4 118-8 38.027 2.4 74.74 13.806 113 19 38.26 5.194 78.07 4.176 119 0 40.93-4.176 82.981-11.509 121-12 38.019-.491 72.005 5.86 110 7 37.995 1.14 79.997-2.93 162-7" fill="none" stroke="#79ceff" stroke-width="17" stroke-linecap="round"/><path d="M0 500h0c36.97-3.356 73.938-6.712 114-4 40.062 2.712 83.216 11.493 124 10 40.784-1.493 79.2-13.261 117-16 37.8-2.739 74.987 3.552 114 7 39.013 3.448 79.851 4.054 120 4 40.149-.054 79.609-.767 117 0 37.391.767 72.715 3.014 113 4 40.285.986 85.533.71 125-2s73.152-7.855 110-7c36.848.855 76.858 7.708 119 7 42.142-.708 86.417-8.979 125-10 38.583-1.021 71.475 5.206 109 4 37.525-1.206 79.682-9.845 120-8 40.318 1.845 78.797 14.175 118 16 39.203 1.825 79.132-6.855 120-10 40.868-3.145 82.677-.756 122 1 39.323 1.756 76.162 2.878 153 4" fill="none" stroke="#bfe7ff" stroke-width="17" stroke-linecap="round"/><path d="M0 625h0c37.897-3.622 75.794-7.244 117-6 41.206 1.244 85.722 7.355 124 9 38.278 1.645 70.318-1.174 106-5s75.004-8.658 117-5c41.996 3.658 86.664 15.806 127 15 40.336-.806 76.34-14.566 114-18 37.66-3.434 76.979 3.459 117 4 40.021.541 80.745-5.268 120-4 39.255 1.268 77.04 9.614 117 14 39.96 4.386 82.092 4.812 120 5 37.908.188 71.59.138 109 0s78.548-.363 119 0 80.218 1.316 119 2c38.782.684 76.58 1.101 115 0s77.459-3.72 119-4c41.541-.28 85.583 1.777 126 1 40.417-.777 77.208-4.388 154-8" fill="none" stroke="#b0e2ff" stroke-width="17" stroke-linecap="round"/><path d="M0 750h0c38.222-2.976 76.443-5.953 117-4 40.557 1.953 83.448 8.835 121 7 37.552-1.835 69.764-12.386 109-15 39.236-2.614 85.496 2.71 126 3 40.504.29 75.253-4.45 115-1s84.491 15.093 123 17 70.781-5.923 108-7c37.219-1.077 79.385 4.599 120 3 40.615-1.599 79.68-10.472 118-15 38.32-4.528 75.894-4.712 115 2 39.106 6.712 79.744 20.32 120 20 40.256-.32 80.13-14.565 120-16 39.87-1.435 79.733 9.942 119 14 39.267 4.058 77.938.8 117-2s78.517-5.138 116-4c37.483 1.138 72.995 5.754 112 6 39.005.246 81.502-3.877 164-8" fill="none" stroke="#85d2ff" stroke-width="17" stroke-linecap="round"/><path d="M0 875h0c37.631 6.333 75.262 12.666 114 10 38.738-2.666 78.582-14.33 120-15 41.418-.67 84.409 9.654 123 8 38.591-1.654 72.782-15.288 111-15 38.218.288 80.463 14.497 119 15 38.537.503 73.367-12.7 113-15 39.633-2.3 84.068 6.307 124 9 39.932 2.693 75.36-.525 115-1s83.495 1.795 124 6c40.505 4.205 77.662 10.347 116 10 38.338-.347 77.858-7.182 117-12 39.142-4.818 77.908-7.62 118-8 40.092-.38 81.51 1.66 119 3 37.49 1.34 71.049 1.978 110 2 38.951.022 83.295-.57 125 3s80.773 11.306 119 12c38.227.694 75.614-5.653 153-12" fill="none" stroke="#53c0ff" stroke-width="17" stroke-linecap="round"/></svg>